# xmcd
#
# Track frame offsets: 
#        150
#        41912
#        64980
#        80570
#        110588
#        127616
#        155845
#        194951
#
# Disc length: 2776 seconds
#
# Revision: 0
# Processed by: cddbd v1.5.2PL0 Copyright (c) Steve Scherf et al.
# Submitted via: ExactAudioCopy v1.0b4
#
DISCID=760ad608
DTITLE=Rod Piazza and the Mighty Flyers - Live At Fleetwoods - Disc1
DYEAR=2017
DGENRE=Blues
TTITLE0=Talk To Your Daughter
TTITLE1=Aw Baby
TTITLE2=Hydromatic Woman
TTITLE3=Westside Lex
TTITLE4=Hear Me Knockin'
TTITLE5=The Stinger
TTITLE6=Tribute To George Smith
TTITLE7=Rockin' Robin
EXTD=
EXTT0=
EXTT1=
EXTT2=
EXTT3=
EXTT4=
EXTT5=
EXTT6=
EXTT7=
PLAYORDER=
